#!OML:ASF F:\VICON\USERDATA\INSTALL\Justin_Nancy\Justin_Nancy.ASF
:FULLY-SPECIFIED
:DEGREES
236
root -0.113181 17.5443 -6.86206 2.48983 -5.13832 -1.68748
lowerback 7.22415 0.939601 1.71328
upperback 0.756577 1.47078 2.46857
thorax -3.29115 0.721695 1.44188
lowerneck -15.6854 -4.85168 -9.4584
upperneck 20.833 -6.03203 7.19996
head 9.69797 -2.77173 3.28984
rclavicle 3.77691e-015 1.35174e-014
rhumerus -31.0335 -12.8028 -78.7448
rradius 28.366
rwrist 7.06615
rhand -14.7253 12.4302
rfingers 7.12502
rthumb 11.4297 -17.2383
lclavicle 3.77691e-015 1.35174e-014
lhumerus -33.814 2.72861 86.203
lradius 33.8897
lwrist -6.07736
lhand -9.87853 27.1381
lfingers 7.12502
lthumb 16.1006 56.4892
rfemur -7.33055 4.18927 27.2619
rtibia 25.0835
rfoot -15.2507 -3.79133
rtoes 2.84224
lfemur -27.3478 3.82323 -17.951
ltibia 60.92
lfoot -10.5091 1.02858
ltoes -5.09789
237
root -0.119134 17.5286 -6.70728 2.56473 -5.33384 -1.91769
lowerback 7.43523 1.04752 1.96029
upperback 0.845303 1.63936 2.49903
thorax -3.31365 0.802009 1.31503
lowerneck -16.2493 -4.89237 -9.56141
upperneck 20.9952 -6.02737 7.24412
head 9.86568 -2.76095 3.31798
rclavicle 3.97569e-015 1.59028e-015
rhumerus -30.4413 -12.2061 -79.111
rradius 28.9167
rwrist 6.75859
rhand -14.7893 12.6096
rfingers 7.12502
rthumb 11.368 -17.0622
lclavicle 3.97569e-015 1.59028e-015
lhumerus -33.8161 2.75231 86.2073
lradius 34.0305
lwrist -5.82113
lhand -9.51873 27.9884
lfingers 7.12502
lthumb 16.4471 57.3112
rfemur -6.7346 4.43114 27.5784
rtibia 24.9034
rfoot -15.166 -4.25183
rtoes -0.93144
lfemur -28.4085 4.00857 -17.6569
ltibia 59.7753
lfoot -11.3702 1.89139
ltoes -5.9945
238
root -0.126906 17.5221 -6.54448 2.67124 -5.43176 -2.15685
lowerback 7.61997 1.12302 2.17282
upperback 0.798719 1.76636 2.51399
thorax -3.46057 0.861101 1.19444
lowerneck -16.1609 -4.86904 -9.44762
upperneck 20.7698 -6.00259 7.17124
head 9.76071 -2.74965 3.27478
rclavicle -9.34288e-015 2.38542e-015
rhumerus -30.1476 -11.3287 -79.5184
rradius 29.4837
rwrist 6.11696
rhand -14.9831 13.1001
rfingers 7.12502
rthumb 11.1811 -16.582
lclavicle -9.34288e-015 2.38542e-015
lhumerus -34.1762 2.79596 86.1277
lradius 34.0362
lwrist -5.93233
lhand -10.1441 26.9498
lfingers 7.12502
lthumb 15.8449 56.3214
rfemur -6.07163 4.60135 27.8901
rtibia 24.6496
rfoot -15.2565 -4.61294
rtoes -2.1584
lfemur -29.3724 3.99042 -17.3591
ltibia 58.4653
lfoot -11.0398 2.84258
ltoes -1.75915
239
root -0.129816 17.5103 -6.38183 2.8181 -5.37084 -2.29101
lowerback 7.67541 1.15244 2.35847
upperback 0.672195 1.82656 2.47365
thorax -3.61608 0.886505 1.04002
lowerneck -15.683 -4.81045 -9.2216
upperneck 20.3498 -5.96412 7.01831
head 9.50773 -2.73989 3.18975
rclavicle -1.33186e-014 -1.19271e-014
rhumerus -29.9844 -10.5995 -79.8589
rradius 29.9214
rwrist 5.47893
rhand -14.8978 12.8222
rfingers 7.12502
rthumb 11.2633 -16.8554
lclavicle -1.33186e-014 -1.19271e-014
lhumerus -34.6615 2.70298 86.0449
lradius 33.8877
lwrist -5.86452
lhand -11.197 25.1932
lfingers 7.12502
lthumb 14.8307 54.6424
rfemur -5.3992 4.40188 28.0616
rtibia 24.2858
rfoot -15.5374 -4.83412
rtoes -2.94789
lfemur -30.2885 3.82053 -17.1946
ltibia 56.988
lfoot -11.0567 3.64004
ltoes 0.263922
240
root -0.13203 17.4952 -6.21641 3.03303 -5.3582 -2.40887
lowerback 7.57583 1.16149 2.53992
upperback 0.571367 1.85292 2.45583
thorax -3.65872 0.895977 0.918242
lowerneck -15.5081 -4.69622 -9.21435
upperneck 20.2937 -5.81684 7.01032
head 9.44147 -2.67528 3.20779
rclavicle -5.76476e-015 7.95139e-016
rhumerus -29.6199 -9.9461 -80.1459
rradius 30.1667
rwrist 5.14766
rhand -14.7694 11.6361
rfingers 7.12502
rthumb 11.3871 -18.0347
lclavicle -5.76476e-015 7.95139e-016
lhumerus -34.9564 2.65351 86.0332
lradius 33.508
lwrist -5.27698
lhand -12.3886 23.38
lfingers 7.12502
lthumb 13.6825 52.9102
rfemur -4.74766 4.2989 28.2288
rtibia 23.7791
rfoot -15.8379 -5.16994
rtoes -2.6791
lfemur -31.2018 3.70484 -17.058
ltibia 55.3441
lfoot -11.6074 4.44
ltoes -2.89373
241
root -0.134439 17.4863 -6.04826 3.17885 -5.39808 -2.53261
lowerback 7.54469 1.1893 2.68574
upperback 0.597811 1.90041 2.47533
thorax -3.60978 0.917849 0.852745
lowerneck -15.8453 -4.65692 -9.43346
upperneck 20.4941 -5.73154 7.20947
head 9.57959 -2.62459 3.32462
rclavicle -1.78906e-014 5.56597e-015
rhumerus -29.0507 -9.24576 -80.4034
rradius 30.505
rwrist 4.72912
rhand -14.8577 11.4153
rfingers 7.12502
rthumb 11.302 -18.2602
lclavicle -1.78906e-014 5.56597e-015
lhumerus -34.9111 2.84007 85.9764
lradius 33.2065
lwrist -5.47281
lhand -12.216 23.8667
lfingers 7.12502
lthumb 13.8489 53.3856
rfemur -3.96859 4.2826 28.4077
rtibia 23.238
rfoot -16.2555 -5.39721
rtoes 0.0363084
lfemur -31.8917 3.49865 -16.8892
ltibia 53.4997
lfoot -12.1957 5.29358
ltoes -5.59479
242
root -0.13181 17.4831 -5.87733 3.2335 -5.57617 -2.77275
lowerback 7.74103 1.25703 2.93655
upperback 0.625301 2.02204 2.54134
thorax -3.6847 0.973758 0.763833
lowerneck -16.2982 -4.70317 -9.4907
upperneck 20.771 -5.73866 7.14984
head 9.76247 -2.63008 3.31022
rclavicle -2.70347e-014 -1.19271e-014
rhumerus -28.6136 -8.56368 -80.5808
rradius 31.0453
rwrist 4.37374
rhand -15.0889 11.9788
rfingers 7.12502
rthumb 11.079 -17.7088
lclavicle -2.70347e-014 -1.19271e-014
lhumerus -34.9403 3.28103 85.8389
lradius 33.0997
lwrist -6.60176
lhand -11.1236 25.4468
lfingers 7.12502
lthumb 14.9014 54.8909
rfemur -2.9649 4.29188 28.6687
rtibia 22.5526
rfoot -16.4866 -5.38162
rtoes 2.14611
lfemur -32.3531 3.30644 -16.5668
ltibia 51.499
lfoot -12.2272 6.26197
ltoes -5.04773
243
root -0.127795 17.4798 -5.70019 3.28256 -5.96033 -2.86164
lowerback 7.76762 1.41034 3.04385
upperback 0.696765 2.2324 2.52232
thorax -3.6191 1.07717 0.662009
lowerneck -16.4294 -4.73175 -9.29406
upperneck 20.6896 -5.75121 6.88965
head 9.7451 -2.64582 3.18048
rclavicle 1.48095e-014 2.46493e-014
rhumerus -28.2818 -7.95354 -80.8028
rradius 31.7759
rwrist 4.2291
rhand -15.4112 11.7626
rfingers 7.12502
rthumb 10.7682 -17.9414
lclavicle 1.48095e-014 2.46493e-014
lhumerus -34.9634 3.53723 85.7076
lradius 32.9013
lwrist -7.05956
lhand -10.4346 25.9232
lfingers 7.12502
lthumb 15.5651 55.3169
rfemur -1.92791 4.32668 28.7497
rtibia 21.7076
rfoot -16.4808 -5.42192
rtoes 1.25659
lfemur -32.645 3.15371 -16.3864
ltibia 49.3421
lfoot -11.9107 7.39198
ltoes -2.55525
244
root -0.129278 17.4742 -5.52089 3.3716 -6.25084 -2.93462
lowerback 7.45592 1.5382 3.12454
upperback 0.898354 2.38392 2.49516
thorax -3.22976 1.15681 0.584863
lowerneck -16.4718 -4.72905 -9.19221
upperneck 20.336 -5.72964 6.79807
head 9.62044 -2.63578 3.1293
rclavicle 1.44119e-014 -1.59028e-015
rhumerus -27.6345 -7.33906 -81.0367
rradius 32.2591
rwrist 4.01338
rhand -15.5798 11.5483
rfingers 7.12502
rthumb 10.6055 -18.164
lclavicle 1.44119e-014 -1.59028e-015
lhumerus -34.7739 3.56324 85.6851
lradius 32.6025
lwrist -6.83887
lhand -10.1927 26.5947
lfingers 7.12502
lthumb 15.7981 55.9701
rfemur -0.939893 4.43757 28.8627
rtibia 20.796
rfoot -16.3714 -5.70687
rtoes 0.291534
lfemur -32.9067 2.92181 -16.167
ltibia 47.1041
lfoot -11.496 8.12271
ltoes 0.00328471
245
root -0.131152 17.4617 -5.34216 3.46226 -6.2908 -3.10513
lowerback 7.23802 1.5929 3.29352
upperback 1.08327 2.45149 2.51732
thorax -2.90963 1.19356 0.516395
lowerneck -16.8428 -4.74321 -9.26893
upperneck 20.2805 -5.73153 6.96758
head 9.67763 -2.61611 3.19646
rclavicle 5.41688e-014 5.08889e-014
rhumerus -26.9044 -7.04238 -81.1452
rradius 32.562
rwrist 4.0119
rhand -15.483 11.6418
rfingers 7.12502
rthumb 10.6988 -18.0658
lclavicle 5.41688e-014 5.08889e-014
lhumerus -34.6053 3.40483 85.766
lradius 32.3231
lwrist -6.54749
lhand -10.9233 26.3723
lfingers 7.12502
lthumb 15.0944 55.802
rfemur 0.0978154 4.42643 29.0987
rtibia 19.9372
rfoot -16.383 -6.01996
rtoes 0.90421
lfemur -33.1738 2.53081 -15.8167
ltibia 44.7765
lfoot -11.0967 8.66339
ltoes -0.650174
246
root -0.132318 17.4448 -5.16915 3.62163 -6.224 -3.19635
lowerback 7.22103 1.58106 3.35764
upperback 1.08115 2.44055 2.53853
thorax -2.90076 1.18762 0.504029
lowerneck -17.1702 -4.6569 -9.28138
upperneck 20.3868 -5.59551 7.0231
head 9.76531 -2.5415 3.23528
rclavicle -9.14409e-015 -7.95139e-015
rhumerus -26.5191 -6.61112 -81.2212
rradius 33.0658
rwrist 3.95055
rhand -15.1111 11.5078
rfingers 7.12502
rthumb 11.0576 -18.181
lclavicle -9.14409e-015 -7.95139e-015
lhumerus -34.7882 3.4602 85.8095
lradius 32.214
lwrist -6.41326
lhand -11.9836 25.1387
lfingers 7.12502
lthumb 14.0728 54.6422
rfemur 1.14619 4.41269 29.2447
rtibia 19.0539
rfoot -16.4247 -6.23858
rtoes 2.80998
lfemur -33.5371 2.06251 -15.5296
ltibia 42.3501
lfoot -10.5746 9.09849
ltoes -2.62576
247
root -0.133872 17.4273 -4.99675 3.81086 -6.28188 -3.13396
lowerback 7.24699 1.59512 3.21005
upperback 0.909161 2.45682 2.53811
thorax -3.09934 1.19392 0.580812
lowerneck -16.9593 -4.57301 -9.33782
upperneck 20.3822 -5.48563 7.03821
head 9.71645 -2.49776 3.26811
rclavicle 6.26172e-015 -7.95139e-015
rhumerus -26.2895 -6.05195 -81.2669
rradius 33.3452
rwrist 3.74321
rhand -14.9685 11.586
rfingers 7.12502
rthumb 11.1952 -18.0953
lclavicle 6.26172e-015 -7.95139e-015
lhumerus -35.2758 3.74964 85.6711
lradius 32.1701
lwrist -6.77518
lhand -11.376 25.384
lfingers 7.12502
lthumb 14.6583 54.8459
rfemur 2.16193 4.63668 29.1933
rtibia 18.1217
rfoot -16.2991 -6.26675
rtoes 5.6072
lfemur -33.9009 1.52618 -15.3574
ltibia 39.8687
lfoot -9.39211 9.44227
ltoes -4.52293
248
root -0.132679 17.4161 -4.81918 3.98631 -6.45927 -3.1486
lowerback 7.2243 1.68251 3.17844
upperback 0.777671 2.57456 2.52025
thorax -3.22206 1.2505 0.567218
lowerneck -16.7035 -4.58703 -9.3689
upperneck 20.4169 -5.52919 7.06536
head 9.68697 -2.52273 3.28008
rclavicle 2.50469e-014 -7.95139e-015
rhumerus -25.8379 -5.67381 -81.3097
rradius 33.3122
rwrist 3.49227
rhand -15.0595 12.3664
rfingers 7.12502
rthumb 11.1074 -17.3197
lclavicle 2.50469e-014 -7.95139e-015
lhumerus -35.6865 3.85486 85.5404
lradius 32.1328
lwrist -7.39037
lhand -10.269 26.6868
lfingers 7.12502
lthumb 15.7246 56.068
rfemur 3.07881 4.77474 29.1754
rtibia 17.2043
rfoot -15.8384 -6.19549
rtoes 7.39211
lfemur -34.099 0.894944 -15.0162
ltibia 37.3287
lfoot -7.77426 9.81025
ltoes -5.56742
